<svg width="134" height="142" viewBox="0 0 134 142" fill="none" xmlns="http://www.w3.org/2000/svg">
<path fill-rule="evenodd" clip-rule="evenodd" d="M64.5778 0.239457C59.618 1.07497 55.8854 3.72764 53.9938 7.76102C53.0786 9.71314 52.8533 11.0181 52.8494 14.3878C52.8454 17.6668 52.6841 18.645 52.1111 18.8635C51.1339 19.2359 51.1348 23.2037 52.1131 26.0302C52.5174 27.1987 53.5182 28.7256 54.337 29.4237C56.517 31.2816 58.3073 36.5486 57.949 40.0489C57.5437 44.0143 56.4358 46.5811 54.3048 48.4929C51.7811 50.7567 49.8691 51.6636 42.5299 54.0764C39.1424 55.1901 35.1927 56.8039 33.7529 57.6632C28.4426 60.8324 25.3401 66.4271 24.6762 74.0326C24.3515 77.7553 24.2347 78.0883 18.3842 91.9954C15.1013 99.8 11.7778 109.546 11.7778 111.37C11.7778 112.676 14.5924 116.54 18.7944 121.003L20.7367 123.066H28.6953C33.0723 123.066 36.7581 122.898 36.8862 122.692C37.0138 122.487 37.2729 120.764 37.4616 118.863L37.8043 115.408L35.6688 115.818C31.5891 116.6 23.8407 116.02 26.0128 115.096C26.4479 114.91 30.0779 113.688 34.0795 112.38L41.3556 110.001L41.6157 112.772C41.9921 116.774 41.691 121.143 40.6389 126.95C38.9434 136.313 38.8178 135.408 42.0053 136.809C48.509 139.668 58.4129 142 64.0513 142H66.8194L66.1564 135.81C64.9528 124.57 62.367 119.327 55.352 113.904C46.9798 107.433 43.692 103.172 42.5646 97.3357C41.6949 92.8309 42.7035 88.0587 46.2068 80.1011C48.0367 75.9454 49.1231 74.7371 49.9175 75.9745C50.6978 77.1897 50.4621 79.5064 49.1778 83.2568C47.8705 87.0736 47.6354 90.1229 48.4777 92.328C48.7652 93.0795 51.3842 96.0104 54.2974 98.8412C57.2107 101.672 60.0781 104.929 60.6686 106.078C62.6672 109.969 64.2732 117.24 63.1336 117.24C62.7841 117.24 62.6755 116.868 62.8589 116.294C63.0535 115.685 62.808 114.998 62.1695 114.363C61.5589 113.757 61.2993 113.064 61.4944 112.56C61.7261 111.959 61.6362 111.848 61.1556 112.143C60.6809 112.434 60.5841 112.329 60.8031 111.762C61.0197 111.202 60.896 111.059 60.3694 111.259C59.9642 111.414 59.7305 111.793 59.8498 112.102C59.9691 112.41 59.664 112.663 59.1717 112.663C58.4828 112.663 58.4007 112.514 58.8153 112.018C59.2093 111.547 59.202 111.222 58.7884 110.812C57.8942 109.924 58.1294 109.281 59.0778 110.02C59.8546 110.625 59.8713 110.608 59.2572 109.831C58.7165 109.147 58.4388 109.093 57.8688 109.563C57.2474 110.075 57.2557 110.222 57.9338 110.715C58.8984 111.415 58.9121 111.72 57.9935 112.07C57.5989 112.22 57.1247 112.101 56.9404 111.804C56.737 111.477 56.827 111.401 57.1687 111.611C57.4791 111.802 57.7334 111.723 57.7334 111.436C57.7334 111.15 57.088 110.525 56.2994 110.049C55.3075 109.45 54.9907 108.981 55.2718 108.529C55.5876 108.022 55.7318 108.082 55.9162 108.796C56.1098 109.548 56.1635 109.565 56.21 108.895C56.2936 107.684 55.2342 107.256 54.5282 108.214C54.1386 108.743 53.7998 108.858 53.5959 108.531C53.4199 108.248 53.4556 108.016 53.6756 108.016C53.8961 108.016 54.3649 107.557 54.7184 106.994C55.0718 106.433 55.1437 106.106 54.8778 106.27C54.6123 106.433 54.3018 106.401 54.1884 106.199C54.075 105.997 54.0427 106.087 54.1161 106.398C54.1894 106.71 53.9699 107.072 53.6282 107.202C53.2053 107.363 53.0337 106.995 53.0904 106.049C53.1432 105.17 52.9814 104.777 52.6509 104.98C51.7689 105.521 50.4841 105.452 50.7071 104.874C50.8229 104.574 50.3614 103.81 49.6809 103.175C49.0008 102.541 48.4445 101.803 48.4445 101.536C48.4445 101.269 48.9715 101.542 49.6154 102.142C50.5247 102.991 50.8694 103.091 51.1602 102.591C51.3661 102.237 51.3494 102.115 51.1236 102.319C50.8972 102.523 50.0945 102.102 49.3391 101.383C47.8827 99.9976 47.0492 100.079 47.8651 101.527C48.2284 102.172 48.1516 102.539 47.565 102.965C46.8585 103.478 46.9167 103.719 48.1316 105.3C48.8801 106.274 49.7244 106.917 50.0187 106.737C50.3228 106.55 50.4123 106.633 50.2265 106.931C50.0461 107.221 51.0009 108.278 52.3776 109.313C60.8393 115.669 62.3661 117.276 64.3456 121.906L65.5678 124.765L65.3317 122.095C65.2021 120.627 64.9616 117.896 64.7978 116.027C64.0742 107.771 62.5694 104.617 56.2188 98.044C51.0498 92.694 49.9111 90.9546 49.9111 88.4072C49.9111 85.8065 51.567 85.4987 52.841 87.8625C53.1838 88.498 54.9193 90.1652 56.6989 91.5672C61.7554 95.5521 63.1131 96.9274 64.3378 99.3063C65.3967 101.363 66.9572 107.499 67.0726 110.059C67.1 110.671 67.4104 109.472 67.7619 107.395C68.837 101.043 69.8373 98.8965 73.2414 95.6365C74.9144 94.0344 77.8458 91.2318 79.7554 89.4083C83.4533 85.8779 84.6222 85.5667 84.6222 88.1121C84.6222 90.7584 83.2881 92.8887 78.5561 97.7994C74.1918 102.328 71.8886 105.744 70.8512 109.226C70.2963 111.088 68.8927 124.6 69.2208 124.926C69.3557 125.06 69.4667 124.861 69.4672 124.482C69.4677 123.138 72.3164 117.941 74.0094 116.196C74.9554 115.221 76.8386 113.552 78.1943 112.488C79.55 111.424 80.5058 110.384 80.3185 110.178C80.1308 109.971 80.2731 109.972 80.6344 110.18C81.3653 110.6 85.7384 106.689 85.3091 106C85.1722 105.78 85.3732 105.719 85.756 105.865C86.1388 106.011 86.5695 105.825 86.7137 105.452C87.0398 104.608 86.2796 103.295 85.7628 103.809C85.5546 104.016 85.7076 104.388 86.1031 104.637C86.4986 104.885 86.5964 105.092 86.3196 105.096C86.0434 105.1 85.4406 104.666 84.9801 104.132C84.0453 103.048 83.3736 102.904 82.8886 103.683C82.7102 103.97 83.0774 104.747 83.7041 105.409C84.5602 106.314 84.6325 106.533 83.994 106.29C83.3677 106.052 83.2191 106.159 83.4279 106.7C83.5838 107.103 83.4787 107.575 83.1947 107.75C82.8808 107.942 82.7913 107.773 82.9673 107.317C83.138 106.876 82.9351 106.445 82.4731 106.269C82.0419 106.105 81.6889 105.749 81.6889 105.478C81.6889 105.193 81.9994 105.24 82.4222 105.589C82.8314 105.926 83.1556 105.979 83.1556 105.708C83.1556 105.441 82.8256 104.951 82.4222 104.618C81.8463 104.143 81.6889 104.142 81.6889 104.611C81.6889 104.946 81.3623 105.083 80.9443 104.923C80.343 104.694 80.2961 104.819 80.7014 105.57C81.046 106.21 81.0431 106.599 80.6926 106.814C80.4119 106.986 80.3102 107.527 80.4667 108.016C80.803 109.069 79.9401 109.751 79.1007 109.095C78.3552 108.512 76.7511 108.516 77.1149 109.1C77.5456 109.793 75.6785 110.918 74.6 110.617C73.7371 110.375 73.7112 110.42 74.3795 111.001C74.7961 111.362 75.4492 112.094 75.8315 112.628C76.4202 113.451 76.3375 113.433 75.2869 112.507C74.0089 111.38 73.0898 111.045 73.6222 111.9C73.7885 112.167 73.6785 112.386 73.3778 112.386C73.0771 112.386 72.9818 112.627 73.1656 112.923C73.4076 113.311 73.5963 113.305 73.8486 112.9C74.0979 112.499 74.379 112.557 74.8347 113.102C75.3832 113.759 75.3431 113.816 74.5467 113.52C73.7303 113.215 73.7005 113.27 74.293 113.994C74.6724 114.457 74.7433 114.813 74.4563 114.813C74.1766 114.813 73.8574 114.542 73.7459 114.211C73.6041 113.788 73.2634 113.886 72.6054 114.54C72.0891 115.052 71.7381 115.591 71.8256 115.737C71.9131 115.883 71.7713 116.073 71.5112 116.159C70.7026 116.427 72.3086 109.426 73.7107 106.572C74.6152 104.731 76.5878 102.368 80.0032 99.0349C82.7395 96.3648 85.3385 93.481 85.778 92.6266C86.9029 90.4404 86.7753 87.8116 85.3218 83.2422C83.5936 77.8097 83.6161 75.4891 85.3966 75.4891C86.2082 75.4891 88.9269 81.0818 90.8189 86.643C93.9527 95.8531 91.5185 103.88 83.6445 110.306C75.8306 116.683 73.5606 119.048 71.763 122.685C69.937 126.38 68.7778 131.227 68.1017 137.995L67.7013 142L70.1731 141.99C73.3015 141.978 78.5674 141.233 82.6667 140.223C86.721 139.223 93.4584 136.727 94.3599 135.891C94.9573 135.337 94.8615 133.977 93.6706 126.091C92.5178 118.455 92.3618 116.363 92.7329 113.497L93.1778 110.061L100.511 112.472C104.544 113.797 108.036 115.068 108.27 115.295C108.974 115.976 104.419 116.406 100.428 116.035L96.6939 115.687L96.997 118.911C97.1637 120.684 97.4306 122.344 97.59 122.601C97.7557 122.867 101.259 123.066 105.765 123.066H113.651L115.791 120.76C117.852 118.539 121.713 113.758 122.451 112.511C123.192 111.26 117.524 94.7748 112.979 84.9589C110.533 79.6763 109.556 76.4071 109.556 73.5102C109.556 70.3498 107.938 65.4464 106.023 62.803C102.704 58.22 99.5412 56.3252 90.2738 53.3671C83.7838 51.2956 80.7771 49.5483 78.4417 46.4913C75.0899 42.1035 76.0261 33.5158 80.3156 29.3052C82.6129 27.0497 84.1329 19.515 82.4222 18.8635C81.8546 18.647 81.6889 17.7032 81.6889 14.6869C81.6889 9.6141 80.9874 7.44643 78.4334 4.6253C75.1544 1.0036 69.9042 -0.658198 64.5778 0.239457ZM23.0887 26.0913C23.0521 26.5589 22.7304 26.9409 22.374 26.9409C22.0176 26.9409 21.2095 27.4871 20.5778 28.1546L19.4294 29.3683L23.0594 29.363C25.0555 29.3601 27.5142 29.2222 28.5223 29.0567C30.3732 28.7527 30.9745 27.7662 29.6223 27.2507C29.2189 27.0973 28.8889 27.1832 28.8889 27.4415C28.8889 27.7002 28.5589 27.9119 28.1556 27.9119C27.7523 27.9119 27.4223 27.7143 27.4223 27.4725C27.4223 27.2308 26.5608 27.1482 25.5083 27.288C23.7893 27.5172 23.5723 27.4259 23.3747 26.3923C23.2413 25.6923 23.1293 25.5743 23.0887 26.0913ZM24.7334 26.4554C24.8996 26.7225 25.1323 26.9409 25.2511 26.9409C25.3699 26.9409 25.4667 26.7225 25.4667 26.4554C25.4667 26.1884 25.2335 25.97 24.949 25.97C24.6644 25.97 24.5671 26.1884 24.7334 26.4554ZM109.311 26.4554C109.477 26.7225 109.71 26.9409 109.829 26.9409C109.948 26.9409 110.044 26.7225 110.044 26.4554C110.044 26.1884 109.811 25.97 109.527 25.97C109.242 25.97 109.145 26.1884 109.311 26.4554ZM111.061 26.6409C111.028 27.4196 110.739 27.5167 109.099 27.2982C107.235 27.0497 106.622 27.4517 106.622 28.9227C106.622 29.1678 108.53 29.3683 110.863 29.3683H115.104L113.956 28.1546C113.324 27.4871 112.534 26.9409 112.2 26.9409C111.866 26.9409 111.482 26.6681 111.346 26.3341C111.208 25.9942 111.082 26.1287 111.061 26.6409ZM101.865 27.5531C100.671 29.0872 100.608 29.4805 101.647 28.9285C102.202 28.6338 102.782 28.1901 102.937 27.943C103.375 27.2385 102.388 26.8802 101.865 27.5531ZM104.383 27.49C103.855 28.3381 104.933 29.0062 105.58 28.2318C106.034 27.6886 106.001 27.4798 105.428 27.2613C105.027 27.1084 104.556 27.2113 104.383 27.49ZM31.8223 28.193C31.8223 28.5236 32.3175 28.6542 33.0445 28.5163C33.7167 28.3886 34.2667 28.0935 34.2667 27.8609C34.2667 27.6279 33.7167 27.4827 33.0445 27.5376C32.3723 27.5929 31.8223 27.8881 31.8223 28.193ZM97.8222 28.8829C97.8222 29.1499 98.0554 29.3683 98.34 29.3683C98.6245 29.3683 98.7218 29.1499 98.5556 28.8829C98.3893 28.6158 98.1566 28.3974 98.0378 28.3974C97.919 28.3974 97.8222 28.6158 97.8222 28.8829ZM16.6667 32.2336C16.2634 32.6973 15.5017 33.5663 14.9742 34.1654L14.0155 35.2548L22.5519 34.9543C27.2472 34.7892 32.7262 34.6504 34.7277 34.6465C37.0587 34.6416 38.1133 34.4834 37.662 34.2066C37.2748 33.9688 36.2443 33.8649 35.3726 33.976C34.1689 34.129 33.6644 33.9493 33.2767 33.2294C32.7037 32.1662 31.8223 31.9593 31.8227 32.8881C31.8227 33.6653 26.8483 33.3969 26.3374 32.5924C26.0768 32.1822 25.7292 32.1963 24.9993 32.6453C23.6192 33.4944 22.3608 33.4279 22.7103 32.524C23.1005 31.5137 21.58 31.5773 20.8247 32.6026C20.4517 33.1095 19.9105 33.2881 19.3712 33.0828C18.6716 32.8162 18.6242 32.6211 19.116 32.0327C19.6225 31.4268 19.5331 31.3166 18.5597 31.3506C17.9222 31.3729 17.07 31.7705 16.6667 32.2336ZM115.178 32.2812C115.421 33.0415 115.266 33.2522 114.462 33.2522C113.898 33.2522 113.309 32.9245 113.155 32.524C113 32.1234 112.463 31.7957 111.963 31.7957C111.355 31.7957 111.146 32.0375 111.334 32.524C111.54 33.0565 111.273 33.2522 110.341 33.2522C109.534 33.2522 109.067 32.9852 109.067 32.524C109.067 32.1234 108.744 31.7957 108.348 31.7957C107.883 31.7957 107.739 32.0764 107.94 32.5958C108.193 33.2507 108.006 33.3498 106.908 33.141C106.17 33.0012 104.814 33.0551 103.894 33.2609C102.61 33.5488 102.222 33.4784 102.222 32.9585C102.222 32.5861 102.002 32.2812 101.733 32.2812C101.464 32.2812 101.3 32.5546 101.367 32.8881C101.446 33.2847 100.939 33.4702 99.9 33.4236C98.8308 33.375 98.3111 33.5736 98.3111 34.0304C98.3111 34.4635 98.8518 34.7086 99.8066 34.7086C100.861 34.7086 101.2 34.8878 100.957 35.3155C100.681 35.801 100.744 35.801 101.27 35.3155C101.633 34.982 102.637 34.7086 103.502 34.7086C104.367 34.7086 105.185 34.982 105.321 35.3155C105.466 35.6747 105.583 35.7039 105.606 35.3864C105.633 35.0091 107.767 34.9218 112.788 35.0907L119.931 35.3315L119.339 34.2338C119.014 33.6299 118.329 33.0274 117.818 32.8949C117.307 32.7618 116.889 32.3511 116.889 31.9817C116.889 31.6127 116.434 31.3103 115.878 31.3103C115.09 31.3103 114.936 31.5239 115.178 32.2812ZM34.2667 32.7667C34.2667 33.0337 34.4867 33.2522 34.7556 33.2522C35.0245 33.2522 35.2445 33.0337 35.2445 32.7667C35.2445 32.4997 35.0245 32.2812 34.7556 32.2812C34.4867 32.2812 34.2667 32.4997 34.2667 32.7667ZM96.3556 32.7667C96.3556 33.0337 96.5888 33.2522 96.8733 33.2522C97.1578 33.2522 97.2551 33.0337 97.0889 32.7667C96.9227 32.4997 96.69 32.2812 96.5712 32.2812C96.4524 32.2812 96.3556 32.4997 96.3556 32.7667ZM99.1975 32.6128C99.55 32.7531 99.9719 32.7356 100.134 32.5745C100.297 32.4133 100.008 32.2987 99.4928 32.3196C98.9232 32.3429 98.8073 32.4579 99.1975 32.6128ZM11.2792 39.0916L10.2447 40.5344H25.4335C35.2332 40.5344 40.6223 40.3621 40.6223 40.0489C40.6223 39.7819 40.3475 39.5479 40.0111 39.5295C39.6753 39.5105 39.84 39.2887 40.3778 39.0362C41.161 38.6687 41.073 38.6328 39.9354 38.8561C39.0563 39.028 38.3719 38.9042 38.1392 38.5303C37.8434 38.0555 37.5911 38.0686 36.9556 38.5925C36.4163 39.0367 36.0379 39.0891 35.8184 38.7503C35.6136 38.4342 31.1075 38.1298 23.9013 37.9453L12.3136 37.6487L11.2792 39.0916ZM107.844 38.0856C102.812 38.2949 101.489 38.493 101.489 39.0377C101.489 39.4159 101.18 39.8275 100.803 39.9523C100.31 40.1154 100.195 39.8892 100.391 39.143C100.761 37.7385 99.4957 37.7715 98.2412 39.1993L97.2815 40.2917L97.5851 39.1993C97.8061 38.4031 97.6805 38.107 97.1217 38.107C96.6303 38.107 96.3556 38.5425 96.3556 39.3207V40.5344H110.073C124.485 40.5344 124.188 40.5844 122.361 38.4711C121.567 37.5526 121.009 37.538 107.844 38.0856ZM33.7778 39.3207C33.7778 39.7212 33.5578 40.0489 33.2889 40.0489C33.02 40.0489 32.8 39.7212 32.8 39.3207C32.8 38.9202 33.02 38.5925 33.2889 38.5925C33.5578 38.5925 33.7778 38.9202 33.7778 39.3207ZM94.2079 39.3605C93.8094 40.3917 93.8305 40.5344 94.3829 40.5344C94.642 40.5344 95.0898 40.0975 95.3778 39.5634C95.7875 38.8032 95.7493 38.5925 95.2028 38.5925C94.819 38.5925 94.3712 38.9381 94.2079 39.3605ZM8.11946 44.4022C7.44284 45.7281 6.88893 46.9296 6.88893 47.0724C6.88893 47.2146 13.771 47.3311 22.1828 47.3311H37.4767L37.423 46.1136C37.3623 44.7367 37.313 44.7047 36.013 45.2004C35.3305 45.4601 34.8759 45.2678 34.3645 44.5032C33.9597 43.8978 33.1481 43.4473 32.4632 43.4473C31.4898 43.4473 31.3251 43.6279 31.5778 44.4183C31.7978 45.1072 31.6658 45.3892 31.1217 45.3892C30.6817 45.3892 30.3556 44.9761 30.3556 44.4183C30.3556 43.4866 30.0295 43.4473 22.2889 43.4473C15.4445 43.4473 14.2223 43.3371 14.2223 42.7191C14.2223 42.169 13.6258 41.9908 11.7861 41.9908C9.35586 41.9908 9.34657 41.9967 8.11946 44.4022ZM119.822 42.6938C119.822 43.3405 118.731 43.4555 112.122 43.5046C107.887 43.5366 104.23 43.5274 103.995 43.4852C103.761 43.4424 103.692 43.726 103.842 44.1153C103.993 44.5047 103.821 44.9358 103.462 45.0727C103.09 45.2144 102.701 44.9178 102.561 44.3848C102.267 43.2701 100.267 43.088 100.267 44.1755C100.267 44.576 99.9235 44.9037 99.5045 44.9037C99.0855 44.9037 98.8782 44.6853 99.0445 44.4183C99.2156 44.1435 98.8103 43.9328 98.1107 43.9328C97.2131 43.9328 96.952 44.1318 97.1564 44.661C97.3363 45.1261 97.148 45.3892 96.6352 45.3892C95.984 45.3892 95.9312 45.5722 96.3556 46.3602C96.8621 47.2996 97.3793 47.3311 112.293 47.3311H127.707L126.331 44.7824C124.964 42.2501 124.939 42.2326 122.389 42.087C120.332 41.969 119.822 42.0894 119.822 42.6938ZM35.0211 43.8993C34.5312 44.6862 35.5955 44.9256 36.2267 44.1702C36.718 43.5823 36.6882 43.4473 36.0663 43.4473C35.6463 43.4473 35.1755 43.6507 35.0211 43.8993ZM45.2667 43.9328C45.1005 44.1998 45.1978 44.4183 45.4823 44.4183C45.7668 44.4183 46 44.1998 46 43.9328C46 43.6658 45.9032 43.4473 45.7844 43.4473C45.6656 43.4473 45.4329 43.6658 45.2667 43.9328ZM38.3704 45.632C38.7855 46.9481 39.1678 47.3311 40.0683 47.3311C41.1708 47.3311 41.1918 47.2753 40.4766 46.2388C40.0625 45.6378 39.4856 45.2013 39.1947 45.2678C38.9043 45.3344 38.6667 45.0615 38.6667 44.661C38.6667 44.2605 38.4795 43.9328 38.2507 43.9328C38.0219 43.9328 38.0756 44.6974 38.3704 45.632ZM94.8889 44.4183C94.8889 44.6853 95.1089 44.9037 95.3778 44.9037C95.6467 44.9037 95.8667 44.6853 95.8667 44.4183C95.8667 44.1512 95.6467 43.9328 95.3778 43.9328C95.1089 43.9328 94.8889 44.1512 94.8889 44.4183ZM40.7415 45.0251C40.852 45.3591 41.5854 45.6664 42.371 45.7091C43.3679 45.7626 43.4676 45.716 42.7 45.5538C42.0948 45.4261 41.6 45.1183 41.6 44.8698C41.6 44.6217 41.3615 44.4183 41.0706 44.4183C40.7792 44.4183 40.6311 44.6916 40.7415 45.0251ZM92.9333 45.4179C92.9333 45.7004 93.1533 45.797 93.4222 45.632C93.6911 45.4669 93.9111 45.2358 93.9111 45.1178C93.9111 44.9999 93.6911 44.9037 93.4222 44.9037C93.1533 44.9037 92.9333 45.1353 92.9333 45.4179ZM90.9778 45.8898C90.9778 46.1485 91.253 46.382 91.5889 46.4087C91.9253 46.4354 91.65 46.632 90.9778 46.8457L89.7556 47.2345L91.1 47.2826C92.553 47.335 92.9954 46.1888 91.7111 45.699C91.3078 45.5455 90.9778 45.6315 90.9778 45.8898ZM94.5975 46.1713C94.8141 46.7311 94.6899 46.8738 94.1609 46.6723C93.7547 46.5175 93.4222 46.6024 93.4222 46.8607C93.4222 47.1195 93.9517 47.3311 94.5985 47.3311C95.5342 47.3311 95.7229 47.1326 95.5196 46.3602C95.3788 45.8262 95.0458 45.3892 94.7794 45.3892C94.5134 45.3892 94.4313 45.7412 94.5975 46.1713ZM42.0889 46.8913C42.0889 47.1331 42.5289 47.3311 43.0667 47.3311C43.6045 47.3311 44.0445 47.2472 44.0445 47.1452C44.0445 47.0428 43.6045 46.8447 43.0667 46.7049C42.5289 46.5655 42.0889 46.649 42.0889 46.8913ZM5.66671 49.2731C5.4692 49.5906 8.21137 49.7348 13.5823 49.6901C19.6039 49.6401 21.0814 49.5231 19.1112 49.2527C15.0729 48.6983 6.01578 48.7119 5.66671 49.2731ZM117.133 49.2731C115.435 49.5042 116.824 49.6294 121.684 49.6823C126.242 49.7318 128.575 49.5896 128.378 49.2731C128.046 48.74 121.045 48.74 117.133 49.2731ZM22.6649 49.6095C23.1406 49.7328 23.8006 49.7246 24.1315 49.5915C24.4625 49.4585 24.0734 49.358 23.2667 49.3677C22.46 49.3774 22.1892 49.4862 22.6649 49.6095ZM111.151 49.6216C111.894 49.7328 112.994 49.7299 113.596 49.6148C114.197 49.4998 113.589 49.4085 112.244 49.4119C110.9 49.4158 110.408 49.51 111.151 49.6216ZM3.56303 54.5265C2.97245 56.3475 2.48893 57.986 2.48893 58.1676C2.48893 58.3487 7.7572 58.4972 14.1964 58.4972H25.9038L29.2297 55.9941C31.0591 54.6172 33.6556 52.9807 35 52.3573L37.4445 51.2247L21.0408 51.2198L4.63711 51.215L3.56303 54.5265ZM100.219 52.8093C101.941 53.6599 104.393 55.2877 105.669 56.4266L107.988 58.4972H119.772C129.141 58.4972 131.556 58.3671 131.556 57.8632C131.556 57.5146 131.096 55.8761 130.533 54.2221L129.51 51.215L113.299 51.2388L97.0889 51.2626L100.219 52.8093ZM1.52827 61.1222C1.28236 61.7645 0.929379 63.6215 0.74409 65.2488L0.407248 68.2068H10.9814C19.1146 68.2068 21.5556 68.0665 21.5561 67.6C21.5561 67.098 22.2894 65.4906 24.8771 60.3178C24.9773 60.1178 19.8655 59.9537 13.5178 59.9537H1.9756L1.52827 61.1222ZM109.562 60.3178C109.565 60.5178 110.189 61.897 110.947 63.3821C111.706 64.8677 112.453 66.5606 112.607 67.1446C112.883 68.1952 113.001 68.2068 123.262 68.2068H133.637L133.3 65.2488C133.115 63.6215 132.762 61.7645 132.516 61.1222L132.069 59.9537H120.812C114.621 59.9537 109.558 60.1178 109.562 60.3178ZM64.546 63.1957C65.5047 64.2463 66.5314 65.528 66.8272 66.0435C67.3337 66.9252 67.4114 66.8946 68.1281 65.5309C71.9796 58.2025 81.529 60.3396 81.3374 68.487C81.2489 72.2363 80.4427 73.5933 73.0898 82.3727C71.453 84.3277 69.5004 86.8527 68.7514 87.9844L67.3894 90.0414L65.5179 87.3887C64.4888 85.9298 61.7774 82.529 59.4924 79.8312C54.4994 73.9355 53.3334 71.7344 53.3334 68.2049C53.3334 63.6166 56.1792 60.7469 60.3905 61.0887C62.4585 61.2567 63.0515 61.5572 64.546 63.1957ZM78.407 64.0171C78.7331 64.7153 79.1648 65.2881 79.3667 65.2901C80.034 65.2969 79.7475 64.4861 78.7737 63.6108C77.835 62.7675 77.8267 62.7762 78.407 64.0171ZM55.7778 63.8375C55.3373 64.1201 55.2767 64.3109 55.6267 64.3157C55.947 64.3196 56.3449 64.1045 56.5111 63.8375C56.8861 63.2345 56.717 63.2345 55.7778 63.8375ZM51.3778 67.2359C51.3778 67.5029 51.1578 67.7214 50.8889 67.7214C50.62 67.7214 50.4 67.5029 50.4 67.2359C50.4 66.9689 50.62 66.7504 50.8889 66.7504C51.1578 66.7504 51.3778 66.9689 51.3778 67.2359ZM79.153 67.082C79.5055 67.2223 79.9274 67.2048 80.0898 67.0436C80.2521 66.8825 79.9636 66.7679 79.4483 66.7887C78.8788 66.812 78.7629 66.9271 79.153 67.082ZM84.3778 67.2359C84.544 67.5029 84.4467 67.7214 84.1622 67.7214C83.8777 67.7214 83.6445 67.5029 83.6445 67.2359C83.6445 66.9689 83.7413 66.7504 83.8601 66.7504C83.9789 66.7504 84.2116 66.9689 84.3778 67.2359ZM0.0444905 72.3334V75.0036H10.3112H20.5778V73.1015C20.5778 72.0553 20.7113 70.8537 20.8746 70.4313C21.1395 69.7453 20.0395 69.6633 10.6079 69.6633H0.0444905V72.3334ZM46.4889 70.3915C46.4889 70.792 46.2821 71.1197 46.0289 71.1197C45.4124 71.1197 44.9709 70.3614 45.3615 69.9735C45.912 69.4269 46.4889 69.641 46.4889 70.3915ZM89.3992 70.5435C89.5057 70.8605 89.2442 71.1197 88.8184 71.1197C88.3925 71.1197 88.0445 70.7736 88.0445 70.3512C88.0445 69.4939 89.097 69.6429 89.3992 70.5435ZM113.642 71.4838C113.808 72.4854 113.947 73.6865 113.95 74.154C113.955 74.9351 114.761 75.0036 123.978 75.0036H134V72.3334V69.6633H123.669H113.339L113.642 71.4838ZM78.2667 72.0907C78.2667 72.3577 78.4999 72.5762 78.7844 72.5762C79.0689 72.5762 79.1662 72.3577 79 72.0907C78.8338 71.8237 78.6011 71.6052 78.4823 71.6052C78.3635 71.6052 78.2667 71.8237 78.2667 72.0907ZM56.7556 74.3778C56.7556 74.6565 57.1408 75.1847 57.6111 75.5512C58.4026 76.1673 58.4129 76.1445 57.7495 75.2463C57.355 74.7123 56.9702 74.1846 56.8939 74.0729C56.8177 73.9617 56.7556 74.0991 56.7556 74.3778ZM76.5556 75.0036C76.7218 75.2706 76.9545 75.4891 77.0733 75.4891C77.1921 75.4891 77.2889 75.2706 77.2889 75.0036C77.2889 74.7366 77.0557 74.5181 76.7712 74.5181C76.4866 74.5181 76.3894 74.7366 76.5556 75.0036ZM75.4962 76.6814C75.4962 77.0703 75.6834 77.2737 75.9117 77.1334C76.14 76.9931 76.2006 76.6751 76.0457 76.4265C75.6506 75.7915 75.4962 75.8629 75.4962 76.6814ZM0.0444905 78.1592V79.8584H9.32066H18.5973L19.3429 78.4262C19.7531 77.6383 20.0889 76.8737 20.0889 76.727C20.0889 76.5799 15.5789 76.46 10.0667 76.46H0.0444905V78.1592ZM114.716 77.5524C115.417 79.8254 115.565 79.8584 125.015 79.8584H134V78.1592V76.46H124.189H114.378L114.716 77.5524ZM73.6535 78.7452C73.3885 79.437 73.4443 79.4928 73.9273 79.0171C74.2617 78.6874 74.4118 78.2956 74.2612 78.1466C74.1106 77.9971 73.8373 78.2665 73.6535 78.7452ZM98.1454 85.4414C99.9294 90.8453 103.372 97.5013 105.654 99.9602L107.574 102.028L101.209 101.197C97.7083 100.74 94.7799 100.285 94.7017 100.186C94.6234 100.087 94.7276 98.2581 94.9339 96.122C95.1397 93.9859 95.324 90.3589 95.3431 88.0616C95.3621 85.7643 95.5289 82.4873 95.7137 80.7794L96.049 77.6737L96.4563 79.6157C96.6802 80.6837 97.4404 83.3053 98.1454 85.4414ZM39.467 100.101C39.291 100.276 37.1551 100.613 28.0128 101.908L26.4029 102.136L28.6562 99.6476C31.2708 96.7599 34.6431 90.1336 36.5034 84.2277C37.2186 81.9581 37.926 79.7734 38.0756 79.3729C38.2252 78.9724 38.6457 83.4267 39.0099 89.2714C39.3736 95.1161 39.5795 99.9894 39.467 100.101ZM53.7245 80.9265C54.5761 81.7722 54.4671 84.6841 53.5714 85.0254C51.8227 85.6919 50.773 83.2344 51.9845 81.308C52.6895 80.1866 52.9271 80.1346 53.7245 80.9265ZM62.1334 80.858C62.1334 81.1406 62.3534 81.2372 62.6222 81.0721C62.8911 80.907 63.1111 80.6759 63.1111 80.558C63.1111 80.44 62.8911 80.3439 62.6222 80.3439C62.3534 80.3439 62.1334 80.5755 62.1334 80.858ZM82.6906 81.8576C83.4235 83.6151 82.8613 84.9559 81.3912 84.9559C80.7018 84.9559 80.4271 84.5467 80.3112 83.3466C80.1655 81.8392 80.8519 80.3439 81.6894 80.3439C81.8928 80.3439 82.3435 81.025 82.6906 81.8576ZM0.305071 83.1354C0.47227 84.1369 0.695689 85.2293 0.8008 85.5628C0.942578 86.0138 2.93333 86.1697 8.56191 86.1697H16.1319L17.1326 83.9233C17.6831 82.6878 18.1334 81.5955 18.1334 81.4959C18.1334 81.3964 14.0536 81.3148 9.06693 81.3148H0L0.305071 83.1354ZM116.4 81.8197C116.4 82.0974 116.844 83.1898 117.388 84.2471L118.376 86.1697H125.879H133.383L133.686 84.3491C133.853 83.348 133.992 82.2557 133.995 81.9217C133.999 81.4585 131.917 81.3148 125.2 81.3148C119.435 81.3148 116.4 81.4891 116.4 81.8197ZM75.8222 85.4414C75.8222 85.8419 75.6154 86.1697 75.3622 86.1697C74.7457 86.1697 74.3042 85.4113 74.6949 85.0234C75.2454 84.4768 75.8222 84.6909 75.8222 85.4414ZM59.9334 85.6842C59.7671 85.9512 59.4244 86.1697 59.1712 86.1697C58.9179 86.1697 58.7111 85.9512 58.7111 85.6842C58.7111 85.4172 59.0543 85.1987 59.4733 85.1987C59.8923 85.1987 60.0996 85.4172 59.9334 85.6842ZM1.28725 89.2039C1.47547 90.0715 1.87929 91.5464 2.18387 92.4809L2.73778 94.1801H7.83053H12.9233L14.2755 90.9031L15.6278 87.6261H8.28618H0.944536L1.28725 89.2039ZM120.089 90.7929C120.749 92.5343 121.289 94.0636 121.289 94.1913C121.289 94.3185 123.572 94.4228 126.363 94.4228H131.437L132.229 91.2886C132.665 89.5651 133.022 88.0358 133.022 87.8902C133.022 87.745 129.842 87.6261 125.955 87.6261H118.888L120.089 90.7929ZM89.5111 95.9079C89.5111 96.1905 89.7311 96.2871 90 96.122C90.2689 95.957 90.4889 95.7259 90.4889 95.6079C90.4889 95.4899 90.2689 95.3938 90 95.3938C89.7311 95.3938 89.5111 95.6254 89.5111 95.9079ZM3.46671 96.3915C3.46671 96.8531 4.5672 99.5384 7.18618 105.468C7.68729 106.602 8.21039 107.529 8.34875 107.527C8.48711 107.525 9.28399 105.286 10.12 102.551C10.956 99.8161 11.8042 97.1964 12.0056 96.7289C12.3386 95.9555 11.9729 95.8793 7.91902 95.8793C5.12258 95.8793 3.46671 96.0696 3.46671 96.3915ZM122.267 96.1672C122.267 96.325 123.068 98.9825 124.048 102.072L125.83 107.69L126.822 105.79C127.368 104.745 128.531 102.088 129.407 99.8845L131.001 95.8793H126.633C124.232 95.8793 122.267 96.0089 122.267 96.1672ZM89.2667 97.3357C89.1005 97.6027 89.1978 97.8212 89.4823 97.8212C89.7668 97.8212 90 97.6027 90 97.3357C90 97.0687 89.9032 96.8502 89.7844 96.8502C89.6656 96.8502 89.4329 97.0687 89.2667 97.3357ZM44.5485 97.5785C44.5485 97.8455 44.7617 98.3916 45.0223 98.7922C45.2828 99.1927 45.496 99.3019 45.496 99.0349C45.496 98.7679 45.2828 98.2217 45.0223 97.8212C44.7617 97.4207 44.5485 97.3114 44.5485 97.5785ZM88.9308 98.6383C89.2833 98.7786 89.7052 98.7611 89.8675 98.5999C90.0298 98.4387 89.7414 98.3242 89.2261 98.345C88.6565 98.3683 88.5407 98.4834 88.9308 98.6383ZM88.5333 100.006C88.5333 100.406 88.7465 100.734 89.0071 100.734C89.2672 100.734 89.3537 100.406 89.1992 100.006C89.0442 99.6053 88.8311 99.2776 88.7255 99.2776C88.6199 99.2776 88.5333 99.6053 88.5333 100.006ZM45.2667 100.249C45.4329 100.516 45.6656 100.734 45.7844 100.734C45.9032 100.734 46 100.516 46 100.249C46 99.9816 45.7668 99.7631 45.4823 99.7631C45.1978 99.7631 45.1005 99.9816 45.2667 100.249ZM46.1428 100.987C45.6788 101.484 45.7077 101.748 46.2767 102.217C47.2134 102.989 47.5884 102.596 47.1103 101.342C46.8042 100.539 46.6224 100.472 46.1428 100.987ZM87.3473 101.058C86.921 102.161 87.8562 103.057 88.6311 102.288C89.0873 101.835 89.0364 101.705 88.4018 101.705C87.8777 101.705 87.6866 101.445 87.8675 100.977C88.0225 100.576 88.0391 100.249 87.9046 100.249C87.7702 100.249 87.5194 100.613 87.3473 101.058ZM84.3783 102.592C84.9278 103.244 85.4089 103.488 85.5159 103.169C85.6396 102.801 85.995 102.88 86.5798 103.406C87.0633 103.84 87.5786 104.003 87.7247 103.768C87.8714 103.532 87.3106 102.941 86.479 102.453C85.6469 101.964 85.1219 101.815 85.3121 102.121C85.7741 102.863 84.9933 102.829 84.1221 102.069C83.7393 101.736 83.8547 101.971 84.3783 102.592ZM49.9111 103.89C50.246 104.29 50.3673 104.618 50.1805 104.618C49.9938 104.618 49.5112 104.29 49.1079 103.89C48.7046 103.489 48.5833 103.161 48.8385 103.161C49.0937 103.161 49.5763 103.489 49.9111 103.89ZM51.3778 103.618C51.3778 103.87 51.5954 104.209 51.8613 104.372C52.138 104.542 52.2202 104.347 52.0535 103.915C51.7283 103.074 51.3778 102.92 51.3778 103.618ZM84.3367 104.444C84.5944 105.11 84.5225 105.14 83.9002 104.627C83.0519 103.928 82.9634 103.647 83.5921 103.647C83.8322 103.647 84.1671 104.006 84.3367 104.444ZM49.4848 105.468C50.0925 106.238 50.0754 106.254 49.3 105.651C48.4855 105.017 48.2269 104.618 48.6293 104.618C48.7305 104.618 49.1157 105.001 49.4848 105.468ZM52.3556 106.573C52.3556 106.816 52.027 106.89 51.6252 106.737C51.2233 106.583 51.0185 106.259 51.17 106.016C51.4868 105.506 52.3556 105.915 52.3556 106.573ZM79.2239 106.827C78.7047 107.449 78.7365 107.72 79.4087 108.387C79.926 108.901 80.2222 108.98 80.2222 108.606C80.2222 108.281 79.968 108.016 79.6576 108.016C79.3373 108.016 79.4762 107.596 79.9778 107.045C80.4642 106.511 80.6354 106.074 80.3577 106.074C80.0805 106.074 79.5701 106.413 79.2239 106.827ZM56.2667 107.017C56.2667 107.268 56.4842 107.607 56.7502 107.77C57.0269 107.94 57.109 107.745 56.9423 107.313C56.6172 106.472 56.2667 106.319 56.2667 107.017ZM81.7495 107.66C81.2665 108.136 81.2108 108.08 81.4757 107.389C81.6596 106.91 81.9329 106.64 82.0834 106.79C82.234 106.939 82.0839 107.331 81.7495 107.66ZM79.2054 110.08C79.835 111.083 79.8238 111.117 79.0694 110.498C78.3635 109.919 78.1244 109.936 77.3637 110.619C75.9767 111.866 75.5304 111.55 76.845 110.252C78.341 108.775 78.385 108.772 79.2054 110.08ZM22.5334 124.401C22.5334 125.189 33.9137 133.261 35.024 133.261C35.3716 133.261 35.7275 132.011 35.9255 130.092C36.1054 128.348 36.3831 126.273 36.543 125.48L36.8334 124.037H29.6834C25.7507 124.037 22.5334 124.201 22.5334 124.401ZM97.8222 124.619C97.8222 125.444 98.956 133.469 99.1012 133.673C99.4458 134.157 111.928 125.168 111.977 124.401C111.99 124.201 108.81 124.037 104.911 124.037C99.7299 124.037 97.8222 124.194 97.8222 124.619Z" fill="black"/>
</svg>
